<svg width="22" height="19" viewBox="0 0 22 19" fill="none" xmlns="http://www.w3.org/2000/svg">
<path fill-rule="evenodd" clip-rule="evenodd" d="M16.52 0L15.52 1H0V0H16.52ZM0 4V5H11.52L12.52 4H0ZM4.52 12H0V13H3.655C3.72445 12.8459 3.81983 12.7048 3.937 12.583L4.52 12ZM0 8V9H7.52L8.52 8H0ZM20.95 1.934C21.1413 2.11164 21.2524 2.35919 21.258 2.62015C21.2637 2.88112 21.1634 3.13324 20.98 3.319L7.825 16.471L3.73 18.227C3.59051 18.2873 3.42837 18.2564 3.32082 18.149C3.21326 18.0417 3.18203 17.8796 3.242 17.74L4.998 13.643L18.15 0.491C18.3358 0.307619 18.5879 0.207312 18.8488 0.212964C19.1098 0.218617 19.3574 0.329747 19.535 0.521L20.95 1.934ZM7.02 15.728L5.74 14.448L4.78 16.688L7.02 15.728ZM18.093 4.79L16.68 3.376L6.382 13.674L7.795 15.088L18.093 4.79ZM19.958 2.345L19.154 1.507C19.0759 1.42544 18.9683 1.37874 18.8555 1.37743C18.7426 1.37611 18.6339 1.42029 18.554 1.5L17.387 2.67L18.8 4.083L19.952 2.932C20.1131 2.77044 20.1158 2.50982 19.958 2.345Z" fill="#35AC46"/>
</svg>
